<svg xmlns="http://www.w3.org/2000/svg" viewBox="0 0 146.09 23.94"><g id="Layer_2" data-name="Layer 2"><g id="Layer_1-2" data-name="Layer 1"><path d="M8.76,9.63c0-1-.46-1.46-1.37-1.46l-.47,0c-.19,0-.31,0-.38-.14s.07-.26.55-.31a2.94,2.94,0,0,1,.51,0A1.65,1.65,0,0,1,9.27,8.76a2.88,2.88,0,0,1,.2,1.14,3.68,3.68,0,0,1-.6,1.73A6.35,6.35,0,0,1,5.6,14.45a3.9,3.9,0,0,1-1.54.32,3.8,3.8,0,0,1-1.64-.4A4.17,4.17,0,0,1,.23,11.88,5.45,5.45,0,0,1,0,10.18a7.92,7.92,0,0,1,.57-2.6A12.48,12.48,0,0,1,4.9,2.33a10.52,10.52,0,0,1,6-2.33,3.12,3.12,0,0,1,3.18,1.91,5,5,0,0,1,.36,2,7.09,7.09,0,0,1,0,.79,18.22,18.22,0,0,1-1.1,4.22,2,2,0,0,0-.15.54c0,.1,0,.14.06.14s.19-.13.36-.44A32.24,32.24,0,0,1,17.06,4,5,5,0,0,1,18.55,2.8a3.67,3.67,0,0,1,1.71-.51,1.44,1.44,0,0,1,1.18.55,2.32,2.32,0,0,1,.44,1.47,26.37,26.37,0,0,1-1.68,7.15l-.42,1.27A66.93,66.93,0,0,1,24.1,6.8C25.83,4.64,27.37,3.37,28.71,3a2.38,2.38,0,0,1,.64-.11,1,1,0,0,1,1,.81,2.08,2.08,0,0,1,.08.64,6.68,6.68,0,0,1-.84,2.78,38.48,38.48,0,0,0-2.38,5.54,15.11,15.11,0,0,0-.87,3.71A6,6,0,0,0,26.57,18a1.84,1.84,0,0,0,2,1.31h.35c.17,0,.27,0,.29.1s0,.13-.15.19a.94.94,0,0,1-.36.08,1.1,1.1,0,0,1-.28,0c-2.24-.23-3.36-1.37-3.36-3.44a8.62,8.62,0,0,1,.46-2.55c.3-1,.56-1.69.78-2.2.33-.82,1.05-2.43,2.14-4.82a5.77,5.77,0,0,0,.57-2c0-.46-.2-.7-.59-.7-.55,0-1.41.57-2.57,1.7a28.88,28.88,0,0,0-1.93,2.18,52.51,52.51,0,0,0-3.08,4.5,36.82,36.82,0,0,0-2.59,4.53Q17.79,18,17,18c-.38,0-.61-.13-.68-.4a.32.32,0,0,1,0-.27c0-.06.18-.3.4-.71s.46-.84.7-1.29.53-1.07.86-1.85.64-1.57.92-2.37A29.38,29.38,0,0,0,20.56,4.9a7.33,7.33,0,0,0,.05-.9,1.24,1.24,0,0,0-.29-.86.82.82,0,0,0-.6-.32c-.7,0-1.46.53-2.3,1.57a41.5,41.5,0,0,0-3,4.13C13.64,9.87,13,11,12.55,11.93s-1,2-1.55,3.32-.9,2-.93,2.07l-.15.32a2.83,2.83,0,0,0-.16.36,1.16,1.16,0,0,1-1.19.61c-.35,0-.54-.11-.57-.34a1,1,0,0,1,0-.15,37.21,37.21,0,0,0,3.1-6.55c1.44-3.71,2.17-6.41,2.17-8.11,0-2-.84-3-2.51-3A8.21,8.21,0,0,0,6.72,2a13.63,13.63,0,0,0-4.07,4,8.94,8.94,0,0,0-1.5,4.44c0,1.82.6,3,1.82,3.6a2.8,2.8,0,0,0,1.3.32A4.29,4.29,0,0,0,8,11.82,4.37,4.37,0,0,0,8.76,9.63Z"/><path d="M34.4,13.21a8.66,8.66,0,0,0-.84,2,5.69,5.69,0,0,0-.14,1.08c0,.27.11.41.32.41s.6-.24,1-.74a15.24,15.24,0,0,0,1.72-2.82c.06-.13.12-.2.19-.22s.17,0,.17.13a.73.73,0,0,1-.06.26c-1.31,2.63-2.4,3.94-3.29,3.94a1.13,1.13,0,0,1-1-.59,1.6,1.6,0,0,1-.19-.85,5,5,0,0,1,.21-1.29c-1.13,1.82-2.11,2.73-2.93,2.73a1,1,0,0,1-.61-.21,1.71,1.71,0,0,1-.64-1.53,6.63,6.63,0,0,1,1.8-4.22,4.72,4.72,0,0,1,2.51-1.55,3,3,0,0,1,.76-.1,2.28,2.28,0,0,1,1.66.67.42.42,0,0,1,.12.45c0,.14-.17.2-.36.17a1,1,0,0,0-1-.76q-.91,0-2.25,1.44a12,12,0,0,0-1.43,2,4.72,4.72,0,0,0-.82,2.21c0,.55.17.83.53.83q1.28,0,3.33-3.91a4.74,4.74,0,0,1,.68-1.07.91.91,0,0,1,.7-.28l.43.06a1.35,1.35,0,0,0,.52,0A8.6,8.6,0,0,0,34.4,13.21Z"/><path d="M39.3,8.72a2.32,2.32,0,0,1-1.21,1.81l1.14,0c.47,0,1.07,0,1.79-.11a.78.78,0,0,1,0,.34,2.16,2.16,0,0,1-.25.82c-.17.36-.32.67-.46.93l-.38.74c-.12.24-.25.52-.4.86s-.27.65-.37.94c-.36,1.07-.3,1.61.17,1.61S40.84,15.5,42,13.14c.1-.19.18-.26.24-.22a.19.19,0,0,1,.1.16,2.58,2.58,0,0,1-.28.66c-.18.38-.38.76-.59,1.16a8.54,8.54,0,0,1-1,1.38,2.16,2.16,0,0,1-1.55,1c-.55,0-.93-.33-1.15-1a2.09,2.09,0,0,1-.06-.58,3,3,0,0,1,.25-1,11.53,11.53,0,0,1,.77-1.55c.35-.6.55-1,.59-1.07a.69.69,0,0,0,.07-.3c0-.44-.57-.68-1.7-.7l-.25.67a13.72,13.72,0,0,1-2.57,4.69q-.21.2-.21-.12a.31.31,0,0,1,0-.15,16.43,16.43,0,0,0,2.06-3.72A20.16,20.16,0,0,0,38,8.34c.08-.44.28-.66.59-.66s.54.2.68.6A1.42,1.42,0,0,1,39.3,8.72Z"/><path d="M44.82,8.72a2.32,2.32,0,0,1-1.21,1.81l1.14,0c.47,0,1.07,0,1.79-.11a.78.78,0,0,1,0,.34,2.16,2.16,0,0,1-.25.82c-.17.36-.32.67-.46.93l-.38.74c-.12.24-.26.52-.4.86s-.28.65-.38.94c-.35,1.07-.29,1.61.17,1.61s1.48-1.18,2.64-3.54c.09-.19.18-.26.24-.22a.21.21,0,0,1,.09.16,2.79,2.79,0,0,1-.27.66c-.18.38-.38.76-.6,1.16a8.39,8.39,0,0,1-1,1.38,2.17,2.17,0,0,1-1.55,1,1.19,1.19,0,0,1-1.15-1,2.09,2.09,0,0,1-.06-.58,3.14,3.14,0,0,1,.24-1,11.78,11.78,0,0,1,.78-1.55c.35-.6.55-1,.59-1.07a.87.87,0,0,0,.07-.3c0-.44-.57-.68-1.7-.7l-.26.67a13.57,13.57,0,0,1-2.56,4.69c-.15.13-.22.09-.22-.12a.33.33,0,0,1,0-.15,16.41,16.41,0,0,0,2.05-3.72,19.54,19.54,0,0,0,1.21-4.07q.14-.66.6-.66c.31,0,.54.2.68.6A1.42,1.42,0,0,1,44.82,8.72Z"/><path d="M48.32,16.77a1.32,1.32,0,0,0,.85-.41,13.72,13.72,0,0,0,2-3.2c.09-.22.19-.28.29-.19a.16.16,0,0,1,0,.13,1.79,1.79,0,0,1-.17.47l-.31.67c-.09.2-.27.52-.53,1a7,7,0,0,1-.71,1,2.34,2.34,0,0,1-1.65,1A1.26,1.26,0,0,1,47,16.77a1.73,1.73,0,0,1-.34-1A3.45,3.45,0,0,1,47,14.47L48.32,11a.88.88,0,0,0-.21-.89l1.17,0q.48,0,.57.18c.06.12,0,.31-.13.56l-1.7,4a3.36,3.36,0,0,0-.36,1.34C47.66,16.56,47.88,16.77,48.32,16.77ZM50.4,9a1,1,0,0,1-.66.25A.7.7,0,0,1,49.17,9,.79.79,0,0,1,49,8.36a1.09,1.09,0,0,1,1-.87.74.74,0,0,1,.58.26.7.7,0,0,1,.16.61A1,1,0,0,1,50.4,9Z"/><path d="M56.56,13.21a8.66,8.66,0,0,0-.84,2,5.69,5.69,0,0,0-.14,1.08c0,.27.11.41.32.41s.6-.24,1-.74a14.73,14.73,0,0,0,1.71-2.82c.06-.13.12-.2.2-.22s.17,0,.17.13a.78.78,0,0,1-.07.26Q57,17.28,55.62,17.27a1.14,1.14,0,0,1-1-.59,1.7,1.7,0,0,1-.19-.85,4.69,4.69,0,0,1,.22-1.29c-1.14,1.82-2.11,2.73-2.93,2.73a1,1,0,0,1-.62-.21,1.73,1.73,0,0,1-.63-1.53,6.63,6.63,0,0,1,1.8-4.22,4.69,4.69,0,0,1,2.5-1.55,3.07,3.07,0,0,1,.77-.1,2.24,2.24,0,0,1,1.65.67.42.42,0,0,1,.13.45A.3.3,0,0,1,57,11a1,1,0,0,0-1-.76q-.91,0-2.25,1.44a11.92,11.92,0,0,0-1.42,2,4.76,4.76,0,0,0-.83,2.21c0,.55.18.83.53.83q1.28,0,3.33-3.91A5.12,5.12,0,0,1,56,11.68a.94.94,0,0,1,.7-.28l.44.06a1.35,1.35,0,0,0,.52,0A7.76,7.76,0,0,0,56.56,13.21Z"/><path d="M57.15,23.94c-1.33,0-2-.55-2-1.64,0-.9.62-1.71,1.85-2.44a22.25,22.25,0,0,1,4-1.72c.75-.24,1.3-.43,1.64-.57a11,11,0,0,0,.55-3.52,3.54,3.54,0,0,0,0-.57A13.75,13.75,0,0,1,61.52,16c-.82,1-1.63,1.41-2.44,1.19A1.8,1.8,0,0,1,58,15.32a6.54,6.54,0,0,1,1.82-4A4.43,4.43,0,0,1,62.14,9.8a2.55,2.55,0,0,1,.72-.1,3.26,3.26,0,0,1,1.87.63c.22.19.34.34.34.47a.66.66,0,0,1-.13.37c-.09.12-.18.14-.27.05a.79.79,0,0,1-.18-.27c-.18-.52-.48-.78-.89-.78a3.73,3.73,0,0,0-2.52,1.57,10.54,10.54,0,0,0-1.36,1.91,4.49,4.49,0,0,0-.7,2,1,1,0,0,0,.42.92.82.82,0,0,0,.3.07A2.11,2.11,0,0,0,61,15.93a7.74,7.74,0,0,0,1.36-1.7,7.84,7.84,0,0,0,.79-1.6c.12-.39.25-.63.42-.72a1.11,1.11,0,0,1,.54-.17.77.77,0,0,0,.4-.11,13.27,13.27,0,0,1,.17,2.24,11.57,11.57,0,0,1-.44,2.92,6.64,6.64,0,0,0,1.39-1.26,8.69,8.69,0,0,0,.65-1c.17-.3.31-.59.44-.88l.25-.57a.32.32,0,0,1,.22-.15c.09,0,.14,0,.14.13a.73.73,0,0,1-.06.26,19.86,19.86,0,0,1-1.56,2.79A4.42,4.42,0,0,1,64,17.49a12.74,12.74,0,0,1-1.47,2.86,10.69,10.69,0,0,1-2.43,2.51A4.91,4.91,0,0,1,57.15,23.94ZM55.6,22.71c0,.53.35.8,1,.8A3.37,3.37,0,0,0,58,23.15a7.35,7.35,0,0,0,1.28-.74,11.81,11.81,0,0,0,1.91-2.08,10.45,10.45,0,0,0,1.21-2.14l-.74.25a23,23,0,0,0-4.67,2,3.1,3.1,0,0,0-1.31,1.68A1.78,1.78,0,0,0,55.6,22.71Z"/><path d="M67.87,14a4.18,4.18,0,0,0-.3,1.62,1.5,1.5,0,0,0,.27.94.88.88,0,0,0,.75.35c1.29,0,2.45-1.21,3.5-3.63q.15-.33.36-.3c.06,0,.09.05.09.11a8.75,8.75,0,0,1-.48,1.12,8.78,8.78,0,0,1-1,1.66,3.21,3.21,0,0,1-2.67,1.49A2.05,2.05,0,0,1,67,16.77a2,2,0,0,1-.6-1.51,5.11,5.11,0,0,1,.46-2,7.69,7.69,0,0,1,1.24-2,4.65,4.65,0,0,1,1.8-1.35,2.4,2.4,0,0,1,.94-.21,1.44,1.44,0,0,1,.82.25.87.87,0,0,1,.37.66A3.19,3.19,0,0,1,70.48,13a4.5,4.5,0,0,1-1.32.65A4.41,4.41,0,0,1,67.87,14Zm3.56-3.39c0-.28-.11-.43-.34-.43q-.59,0-1.8,1.47a10.56,10.56,0,0,0-1.27,2,3.31,3.31,0,0,0,1-.25,4.12,4.12,0,0,0,1.2-.68A2.84,2.84,0,0,0,71.43,10.57Z"/><path d="M85.59,9.63c0-1-.46-1.46-1.38-1.46l-.47,0a.35.35,0,0,1-.38-.14c-.12-.15.07-.26.55-.31a2.94,2.94,0,0,1,.51,0A1.68,1.68,0,0,1,86.1,8.76a3.08,3.08,0,0,1,.19,1.14,3.68,3.68,0,0,1-.6,1.73,6.35,6.35,0,0,1-3.27,2.82,3.85,3.85,0,0,1-1.53.32,3.8,3.8,0,0,1-1.65-.4,4.16,4.16,0,0,1-2.18-2.49,5.15,5.15,0,0,1-.24-1.7,7.72,7.72,0,0,1,.58-2.6,12.45,12.45,0,0,1,4.32-5.25,10.52,10.52,0,0,1,6-2.33,3.11,3.11,0,0,1,3.18,1.91,4.81,4.81,0,0,1,.37,2,7.13,7.13,0,0,1,0,.79,18.22,18.22,0,0,1-1.1,4.22,2,2,0,0,0-.15.54c0,.1,0,.14.06.14s.2-.13.37-.44A31.55,31.55,0,0,1,93.88,4,5,5,0,0,1,95.37,2.8a3.73,3.73,0,0,1,1.71-.51,1.46,1.46,0,0,1,1.19.55,2.32,2.32,0,0,1,.43,1.47A26.37,26.37,0,0,1,97,11.46l-.42,1.27a71.24,71.24,0,0,1,4.32-5.93c1.73-2.16,3.27-3.43,4.61-3.83a2.45,2.45,0,0,1,.64-.11,1,1,0,0,1,1,.81,2.06,2.06,0,0,1,.09.64,6.72,6.72,0,0,1-.85,2.78,39.67,39.67,0,0,0-2.38,5.54,15.11,15.11,0,0,0-.87,3.71,6,6,0,0,0,.19,1.66,1.85,1.85,0,0,0,2,1.31h.35c.18,0,.27,0,.3.1s0,.13-.15.19a.94.94,0,0,1-.36.08,1.19,1.19,0,0,1-.29,0c-2.24-.23-3.35-1.37-3.35-3.44a8.58,8.58,0,0,1,.45-2.55c.31-1,.57-1.69.78-2.2q.51-1.23,2.14-4.82a5.77,5.77,0,0,0,.57-2c0-.46-.2-.7-.59-.7-.55,0-1.41.57-2.57,1.7a28.88,28.88,0,0,0-1.93,2.18,52.51,52.51,0,0,0-3.08,4.5,36.82,36.82,0,0,0-2.59,4.53Q94.61,18,93.8,18c-.38,0-.61-.13-.68-.4a.32.32,0,0,1,0-.27c0-.06.18-.3.4-.71s.46-.84.7-1.29.53-1.07.86-1.85.64-1.57.93-2.37A29.38,29.38,0,0,0,97.39,4.9c0-.24,0-.54,0-.9a1.24,1.24,0,0,0-.29-.86.82.82,0,0,0-.6-.32c-.7,0-1.46.53-2.3,1.57A39.77,39.77,0,0,0,91.3,8.52c-.84,1.35-1.48,2.49-1.93,3.41s-1,2-1.54,3.32l-.94,2.07a2.73,2.73,0,0,1-.15.32c-.06.12-.11.24-.16.36a1.15,1.15,0,0,1-1.18.61c-.36,0-.55-.11-.58-.34a1,1,0,0,1,0-.15,37.21,37.21,0,0,0,3.1-6.55Q90.12,6,90.11,3.46c0-2-.84-3-2.51-3A8.21,8.21,0,0,0,83.54,2a13.49,13.49,0,0,0-4.06,4,8.2,8.2,0,0,0-1,1.85A8.57,8.57,0,0,0,78,10.38c0,1.82.61,3,1.82,3.6a2.8,2.8,0,0,0,1.3.32,4.28,4.28,0,0,0,3.75-2.48A4.4,4.4,0,0,0,85.59,9.63Z"/><path d="M109.72,9.8c1,0,1.55.66,1.55,2a4.65,4.65,0,0,1-.47,1.91,7.62,7.62,0,0,1-1.78,2.5,1,1,0,0,0,1,.53,1.46,1.46,0,0,0,1.09-.57A6.34,6.34,0,0,0,112,15c.18-.33.32-.57.4-.73s.2-.38.33-.67.22-.47.24-.53a.16.16,0,0,1,.15-.1c.14,0,.22,0,.22.15a.3.3,0,0,1,0,.15l-.12.3a4.47,4.47,0,0,1-.2.42l-.22.46c-.1.22-.2.39-.27.52l-.32.51q-.21.32-.36.51a5,5,0,0,1-.4.42,1.94,1.94,0,0,1-.44.36,1.92,1.92,0,0,1-1,.32,1.72,1.72,0,0,1-1.36-.55,3.11,3.11,0,0,1-1.8.72c-1,0-1.55-.65-1.55-2a4.5,4.5,0,0,1,.47-1.91,7.15,7.15,0,0,1,1.79-2.53A3.4,3.4,0,0,1,109.72,9.8Zm.23.66a2.18,2.18,0,0,0-1.36.77,7.05,7.05,0,0,0-1.4,2.08,6,6,0,0,0-.74,2.5c0,.65.24,1,.74,1a1.9,1.9,0,0,0,1.19-.58,1.75,1.75,0,0,1-.34-1c0-.61.27-.91.74-.91a.59.59,0,0,1,.46.19.56.56,0,0,1,.18.35,1.86,1.86,0,0,1,0,.33,11.87,11.87,0,0,0,.82-1.51,4.68,4.68,0,0,0,.53-2.12C110.73,10.81,110.47,10.46,110,10.46Z"/><path d="M123,10.27q-2.59,4.61-2.59,5.94c0,.4.14.6.4.6s.73-.26,1.17-.77a11.8,11.8,0,0,0,1.74-2.9c.09-.2.17-.28.26-.24a.19.19,0,0,1,.12.17,1.85,1.85,0,0,1-.21.53c-.14.29-.25.51-.34.68s-.27.5-.56,1a7.87,7.87,0,0,1-.74,1.06,4.54,4.54,0,0,1-.79.67,1.86,1.86,0,0,1-1.08.33,1.24,1.24,0,0,1-1-.6,1.26,1.26,0,0,1-.19-.75,4.08,4.08,0,0,1,.21-1.16,11.07,11.07,0,0,1,1.17-2.2,1.37,1.37,0,0,0,.23-.61c0-.15-.12-.22-.35-.22s-.65.28-1.26.85a14,14,0,0,0-1.92,2.29,7.28,7.28,0,0,0-1.2,2.31.57.57,0,0,1-.53-.29,1.13,1.13,0,0,1-.17-.51,10,10,0,0,1,1.17-3.32,3.9,3.9,0,0,0,.4-1.09c0-.19,0-.29-.07-.29a.45.45,0,0,0-.27.07,6.25,6.25,0,0,0-1.17.93,15.25,15.25,0,0,0-2.93,4.14.5.5,0,0,1-.26.29,3,3,0,0,1-.63.07,1.59,1.59,0,0,0-.61.11c.25-.5.7-1.42,1.33-2.78a20.37,20.37,0,0,1,2.3-4.2.94.94,0,0,1,.7-.26,2.79,2.79,0,0,1,.43.07,1.59,1.59,0,0,0,.52,0q-.78.42-2.57,4a16.85,16.85,0,0,1,1.44-1.62l.64-.57.33-.3.34-.3c.15-.14.26-.24.34-.3l.33-.27a2,2,0,0,1,.33-.22l.32-.18a.61.61,0,0,1,.29-.13,1.12,1.12,0,0,0,.27,0c.11,0,.19,0,.23,0a.56.56,0,0,1,.43.53,5.61,5.61,0,0,1-.72,1.64c-.48.87-.8,1.45-.94,1.74a15.57,15.57,0,0,1,1.79-1.92,10.23,10.23,0,0,1,2-1.39,4.08,4.08,0,0,1,1.69-.64A.46.46,0,0,1,123,10.27Z"/><path d="M124.66,14a4.18,4.18,0,0,0-.3,1.62,1.56,1.56,0,0,0,.26.94.91.91,0,0,0,.76.35q1.92,0,3.5-3.63.15-.33.36-.3a.1.1,0,0,1,.08.11,7.79,7.79,0,0,1-.47,1.12,8.78,8.78,0,0,1-1,1.66,3.21,3.21,0,0,1-2.67,1.49,2.09,2.09,0,0,1-1.45-.55,2,2,0,0,1-.59-1.51,5.11,5.11,0,0,1,.46-2,7.43,7.43,0,0,1,1.24-2,4.65,4.65,0,0,1,1.8-1.35,2.39,2.39,0,0,1,.93-.21,1.45,1.45,0,0,1,.83.25.86.86,0,0,1,.36.66A3.21,3.21,0,0,1,127.27,13a4.63,4.63,0,0,1-1.32.65A4.48,4.48,0,0,1,124.66,14Zm3.56-3.39c0-.28-.11-.43-.34-.43q-.6,0-1.8,1.47a11.12,11.12,0,0,0-1.28,2,3.25,3.25,0,0,0,1-.25,4.12,4.12,0,0,0,1.2-.68A2.82,2.82,0,0,0,128.22,10.57Z"/><path d="M135.35,10.27c-1.74,3.06-2.61,5.05-2.61,6,0,.36.13.55.4.55.72,0,1.69-1.23,2.91-3.67.09-.2.17-.28.26-.24a.19.19,0,0,1,.12.17.63.63,0,0,1-.08.26,15.14,15.14,0,0,1-1.9,3.13,2.17,2.17,0,0,1-1.55.86,1.33,1.33,0,0,1-1.18-.6,1.19,1.19,0,0,1-.21-.75,4.08,4.08,0,0,1,.21-1.16,11.07,11.07,0,0,1,1.17-2.2,1.37,1.37,0,0,0,.23-.61c0-.15-.12-.22-.36-.22s-.7.32-1.38,1a14.85,14.85,0,0,0-2.95,4.21.57.57,0,0,1-.28.26,3,3,0,0,1-.63.07,1.66,1.66,0,0,0-.62.11c.23-.45.68-1.38,1.34-2.78a22.11,22.11,0,0,1,2.34-4.24.94.94,0,0,1,.7-.26,2.79,2.79,0,0,1,.43.07,1.59,1.59,0,0,0,.52,0q-.78.42-2.57,4a17.54,17.54,0,0,1,1.82-2,10.87,10.87,0,0,1,2-1.36,4.19,4.19,0,0,1,1.68-.62A.59.59,0,0,1,135.35,10.27Z"/><path d="M135.52,15.53a18.61,18.61,0,0,1,1.7-5.9h-1.11c-.07,0-.11,0-.13-.11a.33.33,0,0,1,0-.24.17.17,0,0,1,.16-.11h1.27a31.1,31.1,0,0,1,1.42-2.8,4.94,4.94,0,0,1,1.21-1.52,1.73,1.73,0,0,1,.8-.39,1,1,0,0,1,.35,0,1,1,0,0,1,.49,1,4.48,4.48,0,0,1-.49,1.78c-.33.69-.65,1.33-1,1.93h1a.14.14,0,0,1,.14.11.4.4,0,0,1,0,.24.17.17,0,0,1-.16.11H140a15.53,15.53,0,0,1-2.82,3.51l-.49,2.16a2.58,2.58,0,0,0-.07.54,1.1,1.1,0,0,0,.15.54.5.5,0,0,0,.47.28,1.69,1.69,0,0,0,.81-.26,9.28,9.28,0,0,0,2.25-3.2.34.34,0,0,1,.2-.23c.07,0,.12,0,.14,0a.64.64,0,0,1-.07.31,21,21,0,0,1-1.1,2.08c-.77,1.23-1.58,1.84-2.44,1.84a1.4,1.4,0,0,1-1.09-.48A1.84,1.84,0,0,1,135.52,15.53Zm4-5.9h-1c-.17.4-.55,1.34-1.14,2.83A16.12,16.12,0,0,0,139.51,9.63Zm.28-.46a9.18,9.18,0,0,0,1.4-3.48c0-.29-.05-.43-.15-.43s-.39.23-.71.68a24.34,24.34,0,0,0-1.6,3.23Z"/><path d="M142.1,16.83a2.53,2.53,0,0,0,.38,0,2.25,2.25,0,0,0,1.68-1,21.79,21.79,0,0,0,1.59-2.78.15.15,0,0,1,.15-.1c.12,0,.19,0,.19.15a.88.88,0,0,1-.1.24l-.18.4c-.05.14-.15.33-.27.59s-.24.46-.33.61-.21.35-.35.58a2.73,2.73,0,0,1-.43.53l-.44.46a2.06,2.06,0,0,1-.85.51,2.5,2.5,0,0,1-1.53,0,2.07,2.07,0,0,1-.87.22,1.64,1.64,0,0,1-1.82-1.19,2.65,2.65,0,0,1-.07-.67,1.23,1.23,0,0,1,.27-.75.81.81,0,0,1,.56-.39c.72-1.37,1.34-2.61,1.85-3.71s1.22-1.8,2-1.8a1.33,1.33,0,0,1,.58.13c.19.1.27.2.22.31s-.16.14-.31.07a1,1,0,0,0-.41-.11.65.65,0,0,0-.29.06,1.46,1.46,0,0,0-.72,1.47,2.28,2.28,0,0,0,.17,1c.11.26.24.53.38.83a4.87,4.87,0,0,1,.49,1.81,2.51,2.51,0,0,1-.45,1.38A4,4,0,0,1,142.1,16.83Zm-2.31-.72a1.32,1.32,0,0,0,0,.27.73.73,0,0,0,.78.58.94.94,0,0,0,.43-.09,1.83,1.83,0,0,1-.85-1.59A1.13,1.13,0,0,0,139.79,16.11Zm1.59.57a2.77,2.77,0,0,0,.93-2.33,14.91,14.91,0,0,0-.15-1.81A14.57,14.57,0,0,1,142,11a3.28,3.28,0,0,1,0-.55c-1.08,2.15-1.74,3.46-2,3.93q.45,0,.45.63A1.66,1.66,0,0,0,141.38,16.68Z"/></g></g></svg>